<svg width="141" height="296" viewBox="0 0 141 296" fill="none" xmlns="http://www.w3.org/2000/svg">
<path d="M58.3633 28.2594L58.9097 136.009L85.6838 137.191L89.5062 38.5609L72.4312 0L58.3633 28.2594Z" fill="url(#paint0_linear_103_22)"/>
<circle cx="71.7639" cy="57.8343" r="31" transform="rotate(55.8719 71.7639 57.8343)" fill="url(#paint1_linear_103_22)"/>
<path d="M78.9903 87.9888C74.6361 89.0315 70.1452 89.1023 65.8316 88.2613L65.9183 127.635L78.5374 127.538L78.9903 87.9888Z" fill="#E8E8E8"/>
<path d="M79.679 27.8613L79.7017 25.8774L72.5139 10.8163L65.6938 25.7071L65.6976 27.4254C70.3611 26.4972 75.1482 26.6668 79.679 27.8613Z" fill="#E8E8E8"/>
<path d="M78.9903 87.9888C74.6361 89.0315 70.1452 89.1023 65.8316 88.2613L65.9183 127.635L78.5374 127.538L78.9903 87.9888Z" stroke="#CFCFCF"/>
<path d="M79.679 27.8613L79.7017 25.8774L72.5139 10.8163L65.6938 25.7071L65.6976 27.4254C70.3611 26.4972 75.1482 26.6668 79.679 27.8613Z" stroke="#CFCFCF"/>
<path d="M75.9269 82.7317L75.8835 59.8809L95.1222 47.4068C100.234 58.3406 96.7941 71.6747 86.4843 78.6624C83.2088 80.8824 79.5965 82.2205 75.9269 82.7317ZM72.8305 53.4872L53.4923 41.6701C54.9038 40.0295 56.5536 38.5462 58.4321 37.2731C68.878 30.1932 82.7626 32.078 90.988 41.1807L72.8305 53.4872ZM51.7636 71.9938C46.6963 64.5175 46.2208 55.2797 49.6988 47.6144L69.4673 59.9238L68.8515 82.7063C62.1476 81.727 55.8636 78.0431 51.7636 71.9938Z" fill="#E9E9E9" stroke="#CFCFCF"/>
<defs>
<linearGradient id="paint0_linear_103_22" x1="97.4012" y1="69.4512" x2="26.288" y2="94.8839" gradientUnits="userSpaceOnUse">
<stop offset="0.317003" stop-color="white"/>
<stop offset="1" stop-color="#767474"/>
</linearGradient>
<linearGradient id="paint1_linear_103_22" x1="77.4003" y1="39.7979" x2="59.9276" y2="88.8343" gradientUnits="userSpaceOnUse">
<stop offset="0.317003" stop-color="white"/>
<stop offset="1" stop-color="#767474"/>
</linearGradient>
</defs>
</svg>
