<svg width="212" height="485" viewBox="0 0 212 485" fill="none" xmlns="http://www.w3.org/2000/svg">
<g filter="url(#filter0_d_103_21)">
<path d="M112.287 242.121L96.1626 242.186L90.2517 222.178L89.581 56.9033L103.448 5.00006L118.291 55.9185L118.904 222.31L112.287 242.121Z" fill="url(#paint0_linear_103_21)"/>
</g>
<path d="M109.374 219.219L99.0232 219.626C98.4597 219.648 97.9893 219.2 97.984 218.636L96.4782 58.896C96.4732 58.357 96.8962 57.911 97.4347 57.8876L109.561 57.3596C110.131 57.3348 110.606 57.7903 110.605 58.3603L110.335 218.222C110.334 218.758 109.91 219.198 109.374 219.219Z" fill="#E4E4E4" stroke="#B6B6B6" stroke-opacity="0.3"/>
<defs>
<filter id="filter0_d_103_21" x="84.581" y="0" width="39.3235" height="247.186" filterUnits="userSpaceOnUse" color-interpolation-filters="sRGB">
<feFlood flood-opacity="0" result="BackgroundImageFix"/>
<feColorMatrix in="SourceAlpha" type="matrix" values="0 0 0 0 0 0 0 0 0 0 0 0 0 0 0 0 0 0 127 0" result="hardAlpha"/>
<feOffset/>
<feGaussianBlur stdDeviation="2.5"/>
<feComposite in2="hardAlpha" operator="out"/>
<feColorMatrix type="matrix" values="0 0 0 0 0 0 0 0 0 0 0 0 0 0 0 0 0 0 0.25 0"/>
<feBlend mode="normal" in2="BackgroundImageFix" result="effect1_dropShadow_103_21"/>
<feBlend mode="normal" in="SourceGraphic" in2="effect1_dropShadow_103_21" result="shape"/>
</filter>
<linearGradient id="paint0_linear_103_21" x1="83.7828" y1="92.586" x2="165.174" y2="164.445" gradientUnits="userSpaceOnUse">
<stop offset="0.317003" stop-color="white"/>
<stop offset="1" stop-color="#767474"/>
</linearGradient>
</defs>
</svg>
